<svg height="32" viewBox="0 0 32 32" width="32" xmlns="http://www.w3.org/2000/svg"><path d="m14.96 23.567v-16.642c0-.152-.049-.276-.146-.374s-.222-.146-.374-.146h-7.801c-.152 0-.276.049-.374.146s-.146.222-.146.374v16.642c0 .152.049.276.146.374s.222.146.374.146h7.801c.152 0 .276-.049.374-.146s.146-.222.146-.374zm10.921-6.241v-10.401c0-.152-.049-.276-.146-.374s-.222-.146-.374-.146h-7.801c-.152 0-.276.049-.374.146s-.146.222-.146.374v10.401c0 .152.049.276.146.374s.222.146.374.146h7.801c.152 0 .276-.049.374-.146s.146-.222.146-.374zm2.601-12.482v22.883c0 .282-.103.526-.309.732s-.45.309-.731.309h-22.883c-.282 0-.525-.103-.731-.309s-.309-.45-.309-.732v-22.883c0-.282.103-.526.309-.731s.45-.309.731-.309h22.883c.282 0 .526.103.731.309s.309.45.309.731z" fill="#444"/></svg>